<svg width="1200" height="1200" viewBox="0 0 1200 1200" fill="none" xmlns="http://www.w3.org/2000/svg">
<rect width="1200" height="1200" rx="600" fill="#10142C"/>
<rect x="150" y="150" width="900" height="900" rx="450" fill="#0E1744"/>
<circle cx="336" cy="963" r="25" fill="white"/>
<circle cx="864" cy="963" r="25" fill="white"/>
<circle cx="1027" cy="461" r="25" fill="white"/>
<circle cx="600" cy="151" r="25" fill="white"/>
<circle cx="173" cy="461" r="25" fill="white"/>
<path d="M73 575L79.6126 590.899L96.7764 592.275L83.6994 603.476L87.6946 620.225L73 611.25L58.3054 620.225L62.3006 603.476L49.2236 592.275L66.3874 590.899L73 575Z" fill="white"/>
<path d="M600 228.119L691.327 447.695L698.364 464.614L716.629 466.078L953.68 485.082L773.072 639.792L759.156 651.713L763.408 669.537L818.586 900.858L615.638 776.898L600 767.347L584.362 776.898L381.414 900.858L436.592 669.537L440.844 651.713L426.928 639.792L246.32 485.082L483.371 466.078L501.636 464.614L508.673 447.695L600 228.119Z" stroke="white" stroke-width="60"/>
<path d="M600.5 1005L603.806 1012.95L612.388 1013.64L605.85 1019.24L607.847 1027.61L600.5 1023.12L593.153 1027.61L595.15 1019.24L588.612 1013.64L597.194 1012.95L600.5 1005Z" fill="#FFD700"/>
<path d="M675.5 999L678.806 1006.95L687.388 1007.64L680.85 1013.24L682.847 1021.61L675.5 1017.12L668.153 1021.61L670.15 1013.24L663.612 1007.64L672.194 1006.95L675.5 999Z" fill="#FFD700"/>
<path d="M525.5 999L528.806 1006.95L537.388 1007.64L530.85 1013.24L532.847 1021.61L525.5 1017.12L518.153 1021.61L520.15 1013.24L513.612 1007.64L522.194 1006.95L525.5 999Z" fill="#FFD700"/>
<path d="M450.5 982L453.806 989.949L462.388 990.637L455.85 996.238L457.847 1004.61L450.5 1000.12L443.153 1004.61L445.15 996.238L438.612 990.637L447.194 989.949L450.5 982Z" fill="#FFD700"/>
<path d="M750.5 982L753.806 989.949L762.388 990.637L755.85 996.238L757.847 1004.61L750.5 1000.12L743.153 1004.61L745.15 996.238L738.612 990.637L747.194 989.949L750.5 982Z" fill="#FFD700"/>
<path d="M1127 575L1133.61 590.899L1150.78 592.275L1137.7 603.476L1141.69 620.225L1127 611.25L1112.31 620.225L1116.3 603.476L1103.22 592.275L1120.39 590.899L1127 575Z" fill="white"/>
<path d="M304.34 1068.15C300.598 1065.78 297.283 1062.99 294.394 1059.77C291.579 1056.54 289.625 1053.45 288.532 1050.48L297.468 1044.59C298.555 1047.36 300.212 1050.08 302.436 1052.74C304.661 1055.41 307.171 1057.63 309.966 1059.4C313.076 1061.37 315.66 1062.37 317.718 1062.41C319.804 1062.4 321.331 1061.63 322.3 1060.1C323.013 1058.97 323.147 1057.76 322.701 1056.47C322.329 1055.16 321.587 1053.84 320.475 1052.51C319.408 1051.2 317.873 1049.54 315.871 1047.52C312.806 1044.38 310.395 1041.65 308.638 1039.34C306.881 1037.03 305.767 1034.41 305.296 1031.46C304.87 1028.54 305.655 1025.5 307.651 1022.35C309.389 1019.6 311.701 1017.59 314.585 1016.32C317.498 1015.01 320.855 1014.64 324.657 1015.21C328.504 1015.81 332.591 1017.48 336.918 1020.22C339.938 1022.13 342.663 1024.36 345.092 1026.9C347.521 1029.45 349.389 1032.08 350.698 1034.8L342.058 1040.98C339.253 1035.73 335.665 1031.73 331.292 1028.97C328.227 1027.03 325.637 1026.08 323.522 1026.13C321.453 1026.21 319.905 1027.07 318.879 1028.69C317.853 1030.31 317.917 1032.06 319.072 1033.92C320.3 1035.77 322.407 1038.18 325.394 1041.14C328.458 1044.27 330.869 1047 332.627 1049.31C334.384 1051.62 335.49 1054.21 335.944 1057.08C336.443 1059.99 335.695 1063.02 333.7 1066.17C331.989 1068.88 329.655 1070.87 326.698 1072.16C323.813 1073.42 320.448 1073.76 316.601 1073.15C312.754 1072.55 308.667 1070.88 304.34 1068.15Z" fill="white"/>
<path d="M369.437 1052.04L353.382 1044.08L358.074 1034.62L401.794 1056.3L397.102 1065.76L381.048 1057.8L360.861 1098.51L349.25 1092.75L369.437 1052.04Z" fill="white"/>
<path d="M428.2 1113.11L403.755 1104.26L395.004 1113.85L382.518 1109.33L425.06 1065.18L437.094 1069.54L441.563 1130.72L428.776 1126.09L428.2 1113.11ZM427.716 1102.47L426.669 1079.29L411.018 1096.42L427.716 1102.47Z" fill="white"/>
<path d="M475.754 1092.17L458.326 1088L460.783 1077.73L508.244 1089.09L505.787 1099.36L488.359 1095.19L477.788 1139.38L465.183 1136.37L475.754 1092.17Z" fill="white"/>
<path d="M552.913 1141.09L551.571 1151.4L508.573 1145.81L515.8 1090.28L557.766 1095.74L556.424 1106.05L527.23 1102.25L525.661 1114.31L551.444 1117.67L550.143 1127.66L524.36 1124.31L522.688 1137.16L552.913 1141.09Z" fill="white"/>
<path d="M618.976 1096.67C623.933 1096.49 628.253 1097.16 631.937 1098.68C635.674 1100.2 638.584 1102.44 640.665 1105.41C642.747 1108.38 643.863 1111.94 644.013 1116.1C644.161 1120.2 643.304 1123.83 641.444 1127C639.581 1130.11 636.841 1132.55 633.223 1134.34C629.656 1136.07 625.395 1137.02 620.438 1137.2L609.165 1137.61L609.722 1153.04L596.77 1153.5L594.752 1097.54L618.976 1096.67ZM619.338 1126.67C623.229 1126.53 626.157 1125.6 628.123 1123.87C630.087 1122.1 631.013 1119.66 630.901 1116.57C630.788 1113.43 629.689 1111.06 627.604 1109.48C625.517 1107.85 622.528 1107.11 618.637 1107.25L608.084 1107.63L608.785 1127.05L619.338 1126.67Z" fill="white"/>
<path d="M688.835 1146.76C683.098 1147.7 677.711 1147.31 672.674 1145.6C667.689 1143.88 663.527 1141.07 660.187 1137.19C656.891 1133.25 654.798 1128.56 653.908 1123.14C653.019 1117.72 653.509 1112.64 655.379 1107.9C657.294 1103.1 660.337 1099.09 664.51 1095.87C668.736 1092.63 673.716 1090.54 679.453 1089.6C685.19 1088.66 690.55 1089.05 695.535 1090.77C700.52 1092.49 704.686 1095.32 708.035 1099.26C711.375 1103.14 713.489 1107.8 714.379 1113.22C715.269 1118.64 714.757 1123.75 712.842 1128.55C710.919 1133.3 707.871 1137.28 703.698 1140.51C699.526 1143.73 694.571 1145.82 688.835 1146.76ZM687.046 1135.86C690.309 1135.33 693.136 1134.11 695.525 1132.2C697.906 1130.24 699.613 1127.8 700.646 1124.88C701.732 1121.94 701.994 1118.76 701.432 1115.34C700.871 1111.92 699.607 1108.99 697.64 1106.56C695.726 1104.12 693.332 1102.38 690.459 1101.33C687.577 1100.24 684.504 1099.96 681.241 1100.5C677.978 1101.03 675.156 1102.28 672.775 1104.24C670.386 1106.14 668.648 1108.56 667.562 1111.5C666.529 1114.42 666.294 1117.6 666.855 1121.02C667.417 1124.44 668.654 1127.37 670.569 1129.81C672.535 1132.25 674.96 1134.01 677.842 1135.1C680.715 1136.15 683.783 1136.4 687.046 1135.86Z" fill="white"/>
<path d="M719.262 1082.71L731.717 1079.13L744.278 1122.8L771.264 1115.04L774.183 1125.19L734.742 1136.53L719.262 1082.71Z" fill="white"/>
<path d="M767.298 1067.84L779.429 1063.28L799.134 1115.7L787.003 1120.26L767.298 1067.84Z" fill="white"/>
<path d="M842.28 1097.81C837.137 1100.29 831.944 1101.42 826.699 1101.22C821.479 1100.95 816.719 1099.42 812.421 1096.64C808.147 1093.78 804.808 1089.85 802.404 1084.86C799.999 1079.86 799.027 1074.82 799.487 1069.75C799.971 1064.6 801.748 1059.93 804.818 1055.73C807.913 1051.46 812.056 1048.08 817.247 1045.58C821.62 1043.48 825.931 1042.35 830.18 1042.2C834.476 1042.03 838.519 1042.81 842.31 1044.53L838.141 1055.06C832.833 1052.76 827.655 1052.83 822.609 1055.25C819.485 1056.76 817.032 1058.79 815.251 1061.37C813.448 1063.89 812.438 1066.71 812.223 1069.84C812.057 1072.93 812.724 1076.04 814.227 1079.17C815.73 1082.29 817.743 1084.76 820.268 1086.56C822.841 1088.34 825.688 1089.34 828.81 1089.55C831.908 1089.72 835.02 1089.05 838.144 1087.55C843.19 1085.12 846.46 1081.09 847.954 1075.46L858.781 1078.78C857.788 1082.87 855.883 1086.53 853.066 1089.78C850.249 1093.03 846.654 1095.71 842.28 1097.81Z" fill="white"/>
<path d="M906.957 1047.33L912.5 1056.13L875.809 1079.24L845.967 1031.85L881.777 1009.3L887.32 1018.1L862.408 1033.79L868.888 1044.08L890.889 1030.22L896.26 1038.75L874.26 1052.61L881.166 1063.58L906.957 1047.33Z" fill="white"/>
<path d="M320.219 204.855C316.846 207.722 313.195 210.056 309.266 211.856C305.342 213.582 301.804 214.524 298.651 214.685L295.682 204.399C298.65 204.186 301.74 203.414 304.95 202.085C308.16 200.756 311.025 199.021 313.544 196.879C316.348 194.496 318.075 192.328 318.725 190.375C319.341 188.382 319.061 186.695 317.887 185.313C317.023 184.297 315.909 183.81 314.543 183.85C313.184 183.816 311.702 184.131 310.097 184.795C308.532 185.425 306.486 186.394 303.959 187.703C300.052 189.694 296.734 191.185 294.005 192.175C291.276 193.164 288.435 193.445 285.48 193.016C282.567 192.553 279.901 190.899 277.483 188.055C275.376 185.576 274.146 182.771 273.795 179.64C273.408 176.468 274.055 173.153 275.736 169.695C277.456 166.202 280.267 162.798 284.168 159.482C286.891 157.167 289.829 155.23 292.982 153.669C296.136 152.109 299.206 151.109 302.192 150.67L305.518 160.758C299.676 161.873 294.785 164.107 290.843 167.457C288.08 169.806 286.408 171.998 285.827 174.032C285.287 176.031 285.638 177.762 286.882 179.225C288.125 180.688 289.81 181.146 291.935 180.599C294.066 179.977 296.99 178.682 300.706 176.713C304.613 174.722 307.931 173.231 310.66 172.241C313.389 171.252 316.193 170.968 319.072 171.391C321.992 171.779 324.66 173.395 327.078 176.239C329.151 178.678 330.36 181.5 330.706 184.706C331.057 187.837 330.373 191.149 328.652 194.642C326.931 198.135 324.12 201.539 320.219 204.855Z" fill="white"/>
<path d="M373.336 150.745L351.36 164.64L353.582 177.434L342.357 184.531L333.524 123.86L344.343 117.019L395.436 150.968L383.941 158.236L373.336 150.745ZM364.628 144.608L345.664 131.233L349.617 154.1L364.628 144.608Z" fill="white"/>
<path d="M429.541 74.7665L451.782 126.16L442.017 130.386L402.89 110.272L416.394 141.475L404.647 146.559L382.405 95.165L392.243 90.9074L431.297 111.054L417.794 79.8503L429.541 74.7665Z" fill="white"/>
<path d="M528.488 94.3858L502.954 99.2825L500.342 112.002L487.3 114.503L501.267 54.8043L513.838 52.3936L548.976 102.676L535.62 105.237L528.488 94.3858ZM522.628 85.4903L509.869 66.1064L505.186 88.8351L522.628 85.4903Z" fill="white"/>
<path d="M608.586 44.2255L610.491 100.193L599.857 100.555L570.797 67.5249L571.954 101.505L559.161 101.941L557.255 45.9732L567.969 45.6084L596.95 78.6414L595.793 44.6611L608.586 44.2255Z" fill="white"/>
<path d="M634.795 45.336L660.03 48.5598C666.061 49.3303 671.229 51.1734 675.534 54.0892C679.899 56.9588 683.084 60.6455 685.089 65.1493C687.148 69.6598 687.822 74.6925 687.112 80.2474C686.403 85.8022 684.485 90.5037 681.358 94.3519C678.285 98.2069 674.272 101.001 669.319 102.734C664.426 104.421 658.964 104.879 652.933 104.108L627.698 100.884L634.795 45.336ZM653.646 93.473C659.201 94.1827 663.815 93.2129 667.487 90.5635C671.218 87.868 673.422 83.8751 674.098 78.5847C674.774 73.2944 673.641 68.9021 670.7 65.4079C667.819 61.8676 663.601 59.7426 658.046 59.033L646.302 57.5325L641.902 91.9726L653.646 93.473Z" fill="white"/>
<path d="M731.76 121.331L725.716 103.345L725.101 103.168L714.265 100.036L709.933 115.022L697.483 111.424L713.032 57.6256L736.319 64.3562C741.084 65.7334 744.979 67.7196 748.004 70.3149C751.08 72.9251 753.144 75.9643 754.195 79.4327C755.247 82.9011 755.195 86.6335 754.04 90.6299C752.885 94.6263 750.912 97.8034 748.121 100.161C745.396 102.482 742.044 103.901 738.064 104.416L745.132 125.196L731.76 121.331ZM741.436 86.987C742.31 83.964 742.003 81.377 740.515 79.226C739.042 77.0237 736.435 75.382 732.695 74.301L722.55 71.3689L717.13 90.1213L727.275 93.0534C731.015 94.1345 734.096 94.1366 736.516 93.0598C738.937 91.9829 740.577 89.9587 741.436 86.987Z" fill="white"/>
<path d="M801.155 138.362L796.906 147.854L757.331 130.138L780.212 79.0257L818.838 96.3172L814.589 105.81L787.718 93.7806L782.75 104.879L806.48 115.503L802.362 124.703L778.631 114.08L773.336 125.908L801.155 138.362Z" fill="white"/>
<path d="M847.195 164.127L825.22 150.232L814.614 157.723L803.39 150.626L854.415 116.634L865.234 123.475L856.468 184.189L844.974 176.921L847.195 164.127ZM849.005 153.63L852.959 130.763L833.995 144.138L849.005 153.63Z" fill="white"/>
<path d="M877.685 203.612C874.312 200.745 871.421 197.517 869.011 193.929C866.677 190.334 865.176 186.994 864.51 183.908L874.184 179.321C874.872 182.216 876.131 185.141 877.96 188.096C879.788 191.05 881.962 193.598 884.481 195.74C887.285 198.123 889.703 199.479 891.735 199.806C893.801 200.092 895.422 199.545 896.596 198.163C897.46 197.147 897.762 195.969 897.502 194.628C897.317 193.281 896.767 191.869 895.853 190.391C894.979 188.949 893.693 187.086 891.995 184.802C889.4 181.266 887.395 178.232 885.979 175.698C884.563 173.164 883.828 170.405 883.776 167.42C883.764 164.47 884.967 161.572 887.385 158.728C889.492 156.249 892.062 154.584 895.096 153.733C898.164 152.841 901.54 152.946 905.223 154.047C908.948 155.183 912.76 157.409 916.661 160.726C919.384 163.04 921.769 165.628 923.817 168.488C925.865 171.349 927.346 174.218 928.26 177.096L918.839 182.002C916.798 176.416 913.806 171.948 909.864 168.598C907.101 166.249 904.669 164.951 902.568 164.705C900.508 164.494 898.856 165.12 897.612 166.582C896.369 168.045 896.188 169.782 897.07 171.791C898.027 173.794 899.776 176.472 902.318 179.822C904.912 183.358 906.917 186.392 908.333 188.926C909.75 191.46 910.481 194.181 910.528 197.091C910.615 200.035 909.449 202.93 907.031 205.774C904.959 208.212 902.368 209.86 899.259 210.717C896.226 211.568 892.847 211.426 889.123 210.29C885.398 209.154 881.586 206.928 877.685 203.612Z" fill="white"/>
</svg>
